<svg xmlns="http://www.w3.org/2000/svg" width="1227" height="328" viewBox="0 0 1227 328" fill="none">
<path d="M38.423 77.1727C41.4917 71.4759 45.9204 66.6192 51.3185 63.0311L141.912 0L49.088 152.931C49.088 152.931 40.9776 139.275 37.8145 132.365C33.8729 123.677 31.885 114.236 31.99 104.702C32.0951 95.1681 34.2908 85.7724 38.423 77.1727ZM1.03383 182.669C2.05669 197.294 6.20381 211.532 13.1975 224.43C20.1912 237.329 29.87 248.589 41.5859 257.458L141.79 327.075C141.79 327.075 79.0965 237.054 26.2167 147.477C20.8631 138.013 17.2641 127.666 15.592 116.931C14.8518 112.07 14.8518 107.125 15.592 102.264C14.2132 104.81 11.5368 110.022 11.5368 110.022C6.17499 120.917 2.52334 132.568 0.709417 144.568C-0.33466 157.252 -0.22608 170.004 1.03383 182.669ZM256.512 194.79C253.267 187.881 245.238 174.224 245.238 174.224L152.577 327.075L243.17 264.084C248.568 260.496 252.997 255.64 256.066 249.943C260.198 241.343 262.393 231.947 262.499 222.414C262.604 212.88 260.616 203.438 256.674 194.75L256.512 194.79ZM293.292 144.446C292.269 129.822 288.122 115.583 281.129 102.685C274.135 89.7869 264.456 78.5263 252.74 69.6575L152.698 0C152.698 0 215.351 90.0213 268.272 179.598C273.611 189.065 277.196 199.412 278.856 210.144C279.596 215.005 279.596 219.95 278.856 224.811C280.235 222.265 282.911 217.053 282.911 217.053C288.273 206.158 291.925 194.507 293.738 182.507C294.796 169.824 294.701 157.072 293.455 144.406L293.292 144.446Z" fill="url(#paint0_linear_1006_15)"/>
<path d="M459.454 232V205.74H397.642V172.612H453.596V147.766H397.642V115.042H459.454V88.782H369.766V232H459.454Z" fill="url(#paint1_linear_1006_15)"/>
<path d="M608.954 232V88.782H581.078V183.52L521.489 88.782H486.745V232H514.62V130.394L579.664 232H608.954Z" fill="url(#paint2_linear_1006_15)"/>
<path d="M739.14 122.92C735.908 106.76 722.576 85.752 687.832 85.752C660.764 85.752 637.938 105.144 637.938 130.596C637.938 152.21 652.684 166.956 675.51 171.602L695.508 175.642C706.618 177.864 712.88 184.328 712.88 192.61C712.88 202.71 704.598 210.184 689.65 210.184C669.45 210.184 659.552 197.458 658.34 183.318L632.484 190.186C634.706 210.588 651.472 235.03 689.448 235.03C722.778 235.03 741.16 212.81 741.16 190.792C741.16 170.592 727.222 153.624 701.164 148.574L681.166 144.736C670.662 142.716 665.612 136.454 665.612 128.576C665.612 119.082 674.5 110.396 688.034 110.396C706.214 110.396 712.678 122.718 714.092 130.596L739.14 122.92Z" fill="url(#paint3_linear_1006_15)"/>
<path d="M884.39 231.669H830V88.5249H882.648C896.714 88.5249 909.037 91.5678 919.618 97.6535C930.199 103.739 938.522 112.22 944.587 123.097C950.652 133.844 953.685 146.275 953.685 160.388C953.685 174.373 950.717 186.738 944.781 197.486C938.974 208.233 930.845 216.649 920.392 222.735C910.069 228.691 898.068 231.669 884.39 231.669ZM859.034 101.927V218.656L845.291 204.672H881.487C890.262 204.672 897.746 202.924 903.94 199.428C910.134 195.932 914.844 190.882 918.07 184.278C921.425 177.545 923.102 169.582 923.102 160.388C923.102 151.066 921.36 143.038 917.876 136.304C914.392 129.571 909.424 124.457 902.972 120.961C896.52 117.335 888.842 115.522 879.938 115.522H845.291L859.034 101.927Z" fill="url(#paint4_linear_1006_15)"/>
<path d="M985.587 231.669H955.392L1006.49 88.5249H1035.14L1086.24 231.669H1055.46L1044.82 200.399H996.233L985.587 231.669ZM1016.94 139.995L1004.75 175.927H1036.49L1024.3 139.995C1023.52 137.794 1022.75 135.528 1021.98 133.197C1021.33 130.737 1020.88 128.73 1020.62 127.176C1020.36 128.73 1019.91 130.672 1019.27 133.003C1018.62 135.333 1017.85 137.664 1016.94 139.995Z" fill="url(#paint5_linear_1006_15)"/>
<path d="M1227 160C1227 174.502 1224.03 187.321 1218.1 198.457C1212.29 209.592 1204.1 218.332 1193.51 224.677C1183.06 230.892 1170.93 234 1157.12 234C1143.45 234 1131.38 230.892 1120.93 224.677C1110.48 218.332 1102.35 209.657 1096.54 198.651C1090.73 187.515 1087.83 174.696 1087.83 160.194C1087.83 145.563 1090.73 132.679 1096.54 121.543C1102.48 110.408 1110.67 101.732 1121.12 95.5171C1131.58 89.1724 1143.64 86 1157.32 86C1171.13 86 1183.26 89.1724 1193.71 95.5171C1204.16 101.732 1212.29 110.408 1218.1 121.543C1224.03 132.549 1227 145.368 1227 160ZM1196.42 160C1196.42 150.418 1194.8 142.261 1191.58 135.528C1188.48 128.665 1184.03 123.421 1178.22 119.795C1172.55 116.04 1165.64 114.163 1157.51 114.163C1149.38 114.163 1142.41 116.04 1136.61 119.795C1130.8 123.421 1126.28 128.665 1123.06 135.528C1119.96 142.261 1118.41 150.418 1118.41 160C1118.41 169.452 1119.96 177.675 1123.06 184.667C1126.28 191.529 1130.8 196.838 1136.61 200.593C1142.41 204.219 1149.38 206.031 1157.51 206.031C1165.64 206.031 1172.55 204.154 1178.22 200.399C1184.03 196.644 1188.48 191.335 1191.58 184.472C1194.8 177.48 1196.42 169.323 1196.42 160Z" fill="url(#paint6_linear_1006_15)"/>
<defs>
<linearGradient id="paint0_linear_1006_15" x1="1137.43" y1="433.701" x2="1002.18" y2="-247.171" gradientUnits="userSpaceOnUse">
<stop stop-color="#DE82FF"/>
<stop offset="1" stop-color="#7F6AFF"/>
</linearGradient>
<linearGradient id="paint1_linear_1006_15" x1="1137.43" y1="433.701" x2="1002.18" y2="-247.171" gradientUnits="userSpaceOnUse">
<stop stop-color="#DE82FF"/>
<stop offset="1" stop-color="#7F6AFF"/>
</linearGradient>
<linearGradient id="paint2_linear_1006_15" x1="1137.43" y1="433.701" x2="1002.18" y2="-247.171" gradientUnits="userSpaceOnUse">
<stop stop-color="#DE82FF"/>
<stop offset="1" stop-color="#7F6AFF"/>
</linearGradient>
<linearGradient id="paint3_linear_1006_15" x1="1137.43" y1="433.701" x2="1002.18" y2="-247.171" gradientUnits="userSpaceOnUse">
<stop stop-color="#DE82FF"/>
<stop offset="1" stop-color="#7F6AFF"/>
</linearGradient>
<linearGradient id="paint4_linear_1006_15" x1="1137.43" y1="433.701" x2="1002.18" y2="-247.171" gradientUnits="userSpaceOnUse">
<stop stop-color="#DE82FF"/>
<stop offset="1" stop-color="#7F6AFF"/>
</linearGradient>
<linearGradient id="paint5_linear_1006_15" x1="1137.43" y1="433.701" x2="1002.18" y2="-247.171" gradientUnits="userSpaceOnUse">
<stop stop-color="#DE82FF"/>
<stop offset="1" stop-color="#7F6AFF"/>
</linearGradient>
<linearGradient id="paint6_linear_1006_15" x1="1137.43" y1="433.701" x2="1002.18" y2="-247.171" gradientUnits="userSpaceOnUse">
<stop stop-color="#DE82FF"/>
<stop offset="1" stop-color="#7F6AFF"/>
</linearGradient>
</defs>
</svg>