<svg width="112" height="49" viewBox="0 0 112 49" fill="none" xmlns="http://www.w3.org/2000/svg">
<path d="M15.5 48.4375L0 27.3584L15.3877 36.2627C15.4245 36.2584 15.462 36.2568 15.5 36.2568C15.5376 36.2568 15.5748 36.2585 15.6113 36.2627L31 27.3584L15.5 48.4375ZM14.5312 43.8486V38.0049L7.05176 33.6777L14.5312 43.8486ZM16.4688 38.0049V43.8486L23.9482 33.6777L16.4688 38.0049ZM16.2236 1.15137C16.2951 1.23185 16.3538 1.32373 16.3955 1.4248L31 24.667L15.5 33.6367L0 24.667L0.432617 23.9766C0.481873 23.7862 0.589825 23.6125 0.744141 23.4814L14.6045 1.4248C14.6461 1.32394 14.7041 1.23173 14.7754 1.15137L15.5 0L16.2236 1.15137ZM3.33301 24.3574L14.5312 30.8369V19.0264L3.33301 24.3574ZM16.4688 30.8369L27.4834 24.4629L16.4688 19.0449V30.8369ZM16.4688 16.8857L27.1113 22.1211L16.4688 5.18262V16.8857ZM4.04395 21.873L14.5312 16.8809V5.18262L4.04395 21.873Z" fill="#333333"/>
<path d="M55.5 27.575V33H42.125V31.85H42.375C42.9917 31.85 43.5 31.7917 43.9 31.675C44.3 31.5583 44.5 31.3167 44.5 30.95V17.3C44.5 16.9333 44.3 16.6917 43.9 16.575C43.5 16.4583 42.9917 16.4 42.375 16.4H42.125V15.25H54.775V20.05H53.4L53.15 17.8C53.1167 17.4833 52.9917 17.25 52.775 17.1C52.5583 16.9333 52.225 16.825 51.775 16.775C51.325 16.725 50.7417 16.7 50.025 16.7H46.8V31.55H50.75C51.2833 31.55 51.7417 31.5417 52.125 31.525C52.525 31.4917 52.85 31.4333 53.1 31.35C53.35 31.2667 53.5333 31.15 53.65 31C53.7833 30.85 53.8583 30.6667 53.875 30.45L54.1 27.575H55.5ZM46.075 23.25C46.7917 23.2333 47.4917 23.2167 48.175 23.2C48.875 23.1667 49.5667 23.1417 50.25 23.125C50.9333 23.0917 51.6167 23.0667 52.3 23.05V24.8C51.6167 24.7667 50.9333 24.7417 50.25 24.725C49.5667 24.6917 48.875 24.6667 48.175 24.65C47.4917 24.6167 46.7917 24.5917 46.075 24.575V23.25ZM57.1912 21.7V20.425H57.3162C57.8162 20.425 58.2412 20.3917 58.5912 20.325C58.9579 20.2417 59.2329 20.1083 59.4162 19.925C59.5995 19.7417 59.6995 19.475 59.7162 19.125L61.2912 20.3H65.4912V21.7H57.1912ZM61.7412 28.675C61.7412 29.4083 61.8329 30.0083 62.0162 30.475C62.2162 30.925 62.4912 31.2583 62.8412 31.475C63.1912 31.675 63.5912 31.775 64.0412 31.775C64.4079 31.775 64.7412 31.7417 65.0412 31.675C65.3412 31.6083 65.5912 31.5417 65.7912 31.475V32.875C65.6412 32.9417 65.4579 33 65.2412 33.05C65.0412 33.1167 64.8245 33.1667 64.5912 33.2C64.3579 33.2333 64.1079 33.25 63.8412 33.25C63.1079 33.25 62.4079 33.1167 61.7412 32.85C61.0745 32.5833 60.5329 32.125 60.1162 31.475C59.7162 30.8083 59.5162 29.8833 59.5162 28.7V20.675L59.6912 20.5L59.7162 16.8H61.7412V28.675ZM71.6174 14.6V31.65C71.6174 31.7 71.709 31.75 71.8924 31.8C72.0924 31.8333 72.334 31.8583 72.6174 31.875C72.9007 31.8917 73.1674 31.9 73.4174 31.9H73.4674V33H67.2674V31.9H67.3174C67.7174 31.9 68.0674 31.875 68.3674 31.825C68.684 31.775 68.934 31.6833 69.1174 31.55C69.3007 31.4167 69.3924 31.2333 69.3924 31V16.925C69.3924 16.675 69.3257 16.4833 69.1924 16.35C69.059 16.2167 68.859 16.1083 68.5924 16.025C68.3257 15.9417 67.9757 15.8667 67.5424 15.8L67.2674 15.75V14.6H71.6174ZM81.8674 33H75.6924V31.9H75.7424C75.9757 31.9 76.2341 31.8917 76.5174 31.875C76.8007 31.8583 77.0424 31.8333 77.2424 31.8C77.459 31.75 77.5674 31.7 77.5674 31.65V24.325C77.5674 23.6917 77.5007 23.175 77.3674 22.775C77.234 22.375 77.009 22.0833 76.6924 21.9C76.3757 21.7 75.9591 21.6 75.4424 21.6C74.859 21.6 74.3174 21.7083 73.8174 21.925C73.3174 22.1417 72.8507 22.4667 72.4174 22.9C72.0007 23.3167 71.584 23.8333 71.1674 24.45V22.8C71.6174 22.1833 72.0674 21.675 72.5174 21.275C72.984 20.8583 73.4841 20.55 74.0174 20.35C74.5507 20.15 75.1424 20.05 75.7924 20.05C76.5924 20.05 77.2924 20.1917 77.8924 20.475C78.4924 20.7583 78.9591 21.2 79.2924 21.8C79.6257 22.3833 79.7924 23.1417 79.7924 24.075V31C79.7924 31.2333 79.8757 31.4167 80.0424 31.55C80.2257 31.6833 80.4757 31.775 80.7924 31.825C81.1091 31.875 81.4591 31.9 81.8424 31.9H81.8674V33ZM85.9307 30.95V17.3C85.9307 16.9333 85.7307 16.6917 85.3307 16.575C84.9307 16.4583 84.4223 16.4 83.8057 16.4H83.5557V15.25H90.6557V16.4H90.3807C89.764 16.4 89.2557 16.4583 88.8557 16.575C88.4557 16.6917 88.2557 16.9333 88.2557 17.3V30.95C88.2557 31.3167 88.4557 31.5583 88.8557 31.675C89.2557 31.7917 89.764 31.85 90.3807 31.85H90.6557V33H83.5557V31.85H83.8057C84.4223 31.85 84.9307 31.7917 85.3307 31.675C85.7307 31.5583 85.9307 31.3167 85.9307 30.95ZM92.8818 16.4V15.25H100.507C101.907 15.25 103.174 15.4583 104.307 15.875C105.457 16.275 106.449 16.8583 107.282 17.625C108.115 18.3917 108.757 19.325 109.207 20.425C109.657 21.5083 109.882 22.725 109.882 24.075C109.882 25.425 109.657 26.65 109.207 27.75C108.757 28.8333 108.115 29.775 107.282 30.575C106.449 31.3583 105.457 31.9583 104.307 32.375C103.174 32.7917 101.907 33 100.507 33H92.8818V31.85H93.1568C93.7735 31.85 94.2818 31.7917 94.6818 31.675C95.0818 31.5583 95.2818 31.3167 95.2818 30.95V17.3C95.2818 16.9667 95.0818 16.7333 94.6818 16.6C94.2818 16.4667 93.7735 16.4 93.1568 16.4H92.8818ZM100.507 16.7H97.5818V31.55H100.507C101.574 31.55 102.524 31.3833 103.357 31.05C104.207 30.7167 104.932 30.2333 105.532 29.6C106.132 28.95 106.59 28.1583 106.907 27.225C107.224 26.2917 107.382 25.2417 107.382 24.075C107.382 22.9083 107.224 21.8667 106.907 20.95C106.59 20.0167 106.132 19.2417 105.532 18.625C104.932 17.9917 104.207 17.5167 103.357 17.2C102.524 16.8667 101.574 16.7 100.507 16.7Z" fill="#333333"/>
</svg>
