<svg width="153" height="49" viewBox="0 0 153 49" fill="none" xmlns="http://www.w3.org/2000/svg">
<path fill-rule="evenodd" clip-rule="evenodd" d="M14.6026 1.42819L0.747675 23.4773C0.590749 23.609 0.482458 23.7855 0.432931 23.9782L0 24.6671L15.5 33.637L31 24.6671L16.3974 1.4282C16.3547 1.32334 16.2941 1.22766 16.2194 1.14492L15.5 0L14.7806 1.14492C14.7059 1.22766 14.6453 1.32334 14.6026 1.42819ZM14.5312 5.18329L4.04336 21.874L14.5312 16.8815V5.18329ZM14.5312 19.0273L3.33353 24.3577L14.5312 30.8379V19.0273ZM16.4688 30.8379V19.0458L27.4832 24.4638L16.4688 30.8379ZM16.4688 16.8866V5.18329L27.1126 22.1223L16.4688 16.8866ZM15.3876 36.2631L0 27.3583L15.5 48.4375L31 27.3583L15.6124 36.2631C15.5755 36.2589 15.538 36.2567 15.5 36.2567C15.462 36.2567 15.4245 36.2589 15.3876 36.2631ZM14.5312 38.0061L7.05167 33.6777L14.5312 43.8495V38.0061ZM16.4688 43.8495L23.9483 33.6777L16.4688 38.0061V43.8495Z" fill="#333333"/>
<path d="M43.82 17.34V6.46C43.82 6.16667 43.66 5.97333 43.34 5.88C43.02 5.78667 42.6133 5.74 42.12 5.74H41.9V4.8H47.6V5.74H47.38C46.8867 5.74 46.48 5.78667 46.16 5.88C45.84 5.97333 45.68 6.16667 45.68 6.46V17.34C45.68 17.6333 45.84 17.8267 46.16 17.92C46.48 18.0133 46.8867 18.06 47.38 18.06H47.6V19H41.9V18.06H42.12C42.6133 18.06 43.02 18.0133 43.34 17.92C43.66 17.8267 43.82 17.6333 43.82 17.34ZM59.0447 17.38C59.0447 17.6733 59.198 17.8667 59.5047 17.96C59.8247 18.0533 60.2247 18.1 60.7047 18.1H60.7247V19H57.4247V16.76L57.2647 16.7V6.16C57.2647 5.96 57.2114 5.80667 57.1047 5.7C56.998 5.59333 56.8314 5.50667 56.6047 5.44C56.378 5.37333 56.0914 5.31333 55.7447 5.26L55.5247 5.22V4.3H59.0447V17.38ZM54.0247 8.64C54.558 8.64 55.0314 8.71333 55.4447 8.86C55.858 9.00667 56.238 9.24 56.5847 9.56C56.9447 9.86667 57.2847 10.2667 57.6047 10.76V12.56C57.3247 11.92 57.0047 11.3933 56.6447 10.98C56.298 10.5667 55.9114 10.2667 55.4847 10.08C55.058 9.88 54.5914 9.78 54.0847 9.78C53.6047 9.78 53.178 9.88 52.8047 10.08C52.4314 10.28 52.118 10.5667 51.8647 10.94C51.6114 11.3 51.418 11.74 51.2847 12.26C51.1647 12.78 51.1047 13.36 51.1047 14C51.1047 14.6133 51.1647 15.1733 51.2847 15.68C51.418 16.1733 51.6047 16.6 51.8447 16.96C52.098 17.32 52.4047 17.5933 52.7647 17.78C53.138 17.9667 53.558 18.06 54.0247 18.06C54.558 18.06 55.038 17.9533 55.4647 17.74C55.8914 17.5133 56.278 17.1867 56.6247 16.76C56.9847 16.3333 57.3114 15.8067 57.6047 15.18V16.86C57.258 17.38 56.9047 17.8133 56.5447 18.16C56.1847 18.5067 55.7914 18.7667 55.3647 18.94C54.938 19.1133 54.4514 19.2 53.9047 19.2C52.9714 19.2 52.1514 18.9867 51.4447 18.56C50.7514 18.12 50.2047 17.5133 49.8047 16.74C49.418 15.9533 49.2247 15.04 49.2247 14C49.2247 12.9333 49.4247 12 49.8247 11.2C50.2247 10.4 50.7847 9.77333 51.5047 9.32C52.238 8.86667 53.078 8.64 54.0247 8.64ZM63.8572 14C63.8572 14.64 63.9372 15.2133 64.0972 15.72C64.2705 16.2267 64.5105 16.6533 64.8172 17C65.1239 17.3467 65.4839 17.6133 65.8972 17.8C66.3105 17.9733 66.7572 18.06 67.2372 18.06C67.7839 18.06 68.2505 17.9533 68.6372 17.74C69.0372 17.5267 69.3705 17.2667 69.6372 16.96C69.9172 16.64 70.1505 16.3267 70.3372 16.02L71.2772 16.86C71.0239 17.2867 70.7105 17.68 70.3372 18.04C69.9639 18.4 69.5172 18.6867 68.9972 18.9C68.4905 19.1 67.8905 19.2 67.1972 19.2C66.2239 19.2 65.3439 18.9867 64.5572 18.56C63.7839 18.1333 63.1705 17.5267 62.7172 16.74C62.2639 15.9533 62.0372 15.0267 62.0372 13.96C62.0372 12.9067 62.2505 11.9867 62.6772 11.2C63.1039 10.4 63.6772 9.77333 64.3972 9.32C65.1305 8.86667 65.9439 8.64 66.8372 8.64C67.5705 8.64 68.2105 8.76 68.7572 9C69.3172 9.24 69.7839 9.6 70.1572 10.08C70.5439 10.5467 70.8372 11.14 71.0372 11.86C71.2372 12.58 71.3372 13.42 71.3372 14.38H63.4972V13.26H69.9972L69.4372 13.7C69.4239 13.0333 69.3639 12.4533 69.2572 11.96C69.1505 11.4667 68.9905 11.06 68.7772 10.74C68.5639 10.42 68.2972 10.18 67.9772 10.02C67.6572 9.86 67.2772 9.78 66.8372 9.78C66.4239 9.78 66.0372 9.88 65.6772 10.08C65.3172 10.2667 64.9972 10.5467 64.7172 10.92C64.4505 11.28 64.2372 11.72 64.0772 12.24C63.9305 12.76 63.8572 13.3467 63.8572 14ZM72.8538 19V18.1H72.8938C73.2138 18.1 73.4938 18.08 73.7338 18.04C73.9871 18 74.1804 17.9267 74.3138 17.82C74.4604 17.7133 74.5338 17.5667 74.5338 17.38V10.7C74.5338 10.5 74.4804 10.3533 74.3738 10.26C74.2671 10.1533 74.1004 10.0667 73.8738 10C73.6604 9.93333 73.3871 9.86667 73.0538 9.8L72.8538 9.76V8.84H76.1338V10.96L76.3138 11.18V17.9C76.3138 17.94 76.3938 17.98 76.5538 18.02C76.7138 18.0467 76.9071 18.0667 77.1338 18.08C77.3604 18.0933 77.5671 18.1 77.7538 18.1H77.8138V19H72.8538ZM84.5338 19H79.5738V18.1H79.6138C79.8004 18.1 80.0071 18.0933 80.2338 18.08C80.4604 18.0667 80.6538 18.0467 80.8138 18.02C80.9871 17.98 81.0738 17.94 81.0738 17.9V12.08C81.0738 11.5733 81.0204 11.16 80.9138 10.84C80.8071 10.52 80.6271 10.2867 80.3738 10.14C80.1338 9.98 79.8004 9.9 79.3738 9.9C78.9338 9.9 78.5138 9.98667 78.1138 10.16C77.7138 10.3333 77.3338 10.5933 76.9738 10.94C76.6271 11.2733 76.2938 11.6933 75.9738 12.2V10.84C76.3338 10.3467 76.6938 9.94 77.0538 9.62C77.4271 9.28667 77.8271 9.04 78.2538 8.88C78.6804 8.72 79.1538 8.64 79.6738 8.64C80.3138 8.64 80.8671 8.75333 81.3338 8.98C81.8138 9.20667 82.1871 9.56 82.4538 10.04C82.7204 10.5067 82.8538 11.1133 82.8538 11.86V17.38C82.8538 17.5667 82.9204 17.7133 83.0538 17.82C83.2004 17.9267 83.3938 18 83.6338 18.04C83.8871 18.08 84.1738 18.1 84.4938 18.1H84.5338V19ZM85.1444 9.98V8.94H85.2444C85.6444 8.94 85.9844 8.91333 86.2644 8.86C86.5577 8.80667 86.7777 8.70667 86.9244 8.56C87.071 8.41333 87.1444 8.20667 87.1444 7.94L88.4444 8.84H91.8044V9.98H85.1444ZM88.7844 15.52C88.7844 16.1067 88.8577 16.5867 89.0044 16.96C89.1644 17.32 89.3844 17.5867 89.6644 17.76C89.9444 17.92 90.271 18 90.6444 18C90.9244 18 91.1844 17.9733 91.4244 17.92C91.6644 17.8667 91.871 17.8133 92.0444 17.76V18.9C91.9244 18.9533 91.7777 19 91.6044 19.04C91.4444 19.0933 91.271 19.1333 91.0844 19.16C90.8977 19.1867 90.6977 19.2 90.4844 19.2C89.8977 19.2 89.3377 19.0933 88.8044 18.88C88.271 18.6667 87.8377 18.2933 87.5044 17.76C87.171 17.2267 87.0044 16.4867 87.0044 15.54V9.16L87.1444 9.02V6.04H88.7844V15.52ZM95.7053 6.62C95.3586 6.62 95.0653 6.51333 94.8253 6.3C94.5986 6.07333 94.4853 5.77333 94.4853 5.4C94.4853 5.02667 94.5986 4.73333 94.8253 4.52C95.0653 4.30667 95.3586 4.2 95.7053 4.2C96.052 4.2 96.3386 4.30667 96.5653 4.52C96.8053 4.73333 96.9253 5.02667 96.9253 5.4C96.9253 5.77333 96.8053 6.07333 96.5653 6.3C96.3386 6.51333 96.052 6.62 95.7053 6.62ZM96.6853 8.84V17.38C96.6853 17.6733 96.8386 17.8667 97.1453 17.96C97.4653 18.0533 97.8653 18.1 98.3453 18.1H98.3653V19H93.2253V18.1H93.2453C93.7253 18.1 94.1186 18.0533 94.4253 17.96C94.7453 17.8667 94.9053 17.6733 94.9053 17.38V10.7C94.9053 10.4067 94.7853 10.2067 94.5453 10.1C94.3053 9.99333 93.932 9.89333 93.4253 9.8L93.2053 9.76V8.84H96.6853ZM98.992 9.98V8.94H99.092C99.492 8.94 99.832 8.91333 100.112 8.86C100.405 8.80667 100.625 8.70667 100.772 8.56C100.919 8.41333 100.992 8.20667 100.992 7.94L102.292 8.84H105.652V9.98H98.992ZM102.632 15.52C102.632 16.1067 102.705 16.5867 102.852 16.96C103.012 17.32 103.232 17.5867 103.512 17.76C103.792 17.92 104.119 18 104.492 18C104.772 18 105.032 17.9733 105.272 17.92C105.512 17.8667 105.719 17.8133 105.892 17.76V18.9C105.772 18.9533 105.625 19 105.452 19.04C105.292 19.0933 105.119 19.1333 104.932 19.16C104.745 19.1867 104.545 19.2 104.332 19.2C103.745 19.2 103.185 19.0933 102.652 18.88C102.119 18.6667 101.685 18.2933 101.352 17.76C101.019 17.2267 100.852 16.4867 100.852 15.54V9.16L100.992 9.02V6.04H102.632V15.52ZM113.128 18.1L112.888 18.84L111.868 19.28L108.128 10.44C108.048 10.2533 107.942 10.1133 107.808 10.02C107.675 9.91333 107.508 9.84 107.308 9.8C107.108 9.76 106.875 9.74 106.608 9.74H106.588V8.84H111.588V9.74H111.548C111.282 9.74 111.008 9.74667 110.728 9.76C110.462 9.77333 110.235 9.79333 110.048 9.82C109.875 9.83333 109.788 9.86667 109.788 9.92L113.128 18.1ZM113.328 18.66C112.968 19.5133 112.608 20.2533 112.248 20.88C111.888 21.52 111.515 22.04 111.128 22.44C110.755 22.84 110.355 23.14 109.928 23.34C109.502 23.54 109.035 23.64 108.528 23.64C108.195 23.64 107.915 23.6 107.688 23.52C107.475 23.4533 107.295 23.3733 107.148 23.28V21.68C107.188 21.6933 107.268 21.7267 107.388 21.78C107.522 21.8467 107.682 21.9067 107.868 21.96C108.068 22.0133 108.282 22.04 108.508 22.04C108.815 22.04 109.122 21.9867 109.428 21.88C109.735 21.7867 110.048 21.5933 110.368 21.3C110.688 21.02 111.015 20.6067 111.348 20.06C111.682 19.5133 112.022 18.8 112.368 17.92L112.508 17.56L115.548 10.18C115.548 10.0867 115.468 10.0133 115.308 9.96C115.148 9.89333 114.942 9.84 114.688 9.8C114.435 9.76 114.175 9.74 113.908 9.74H113.848V8.84H118.208V9.74H118.188C117.988 9.74 117.795 9.76667 117.608 9.82C117.422 9.86 117.248 9.94667 117.088 10.08C116.928 10.2 116.795 10.3867 116.688 10.64L113.328 18.66ZM45.66 28.98V40.34C45.66 40.5133 45.7133 40.6533 45.82 40.76C45.94 40.8533 46.0933 40.92 46.28 40.96C46.4667 41 46.6733 41.0267 46.9 41.04C47.1267 41.0533 47.3467 41.06 47.56 41.06H47.9V42H41.9V41.06H42.12C42.6133 41.06 43.02 41.0133 43.34 40.92C43.66 40.8267 43.82 40.6333 43.82 40.34V29.46C43.82 29.1667 43.66 28.9733 43.34 28.88C43.02 28.7867 42.6133 28.74 42.12 28.74H41.9V27.8H52.14V31.64H51.02L50.84 29.84C50.8133 29.6 50.7133 29.42 50.54 29.3C50.3667 29.1667 50.1 29.08 49.74 29.04C49.38 29 48.9133 28.98 48.34 28.98H45.66ZM45.06 34.34C45.66 34.3133 46.2533 34.2933 46.84 34.28C47.44 34.2667 48.0333 34.2533 48.62 34.24C49.22 34.2133 49.8133 34.1933 50.4 34.18V35.58C49.8133 35.5533 49.22 35.5333 48.62 35.52C48.0333 35.4933 47.44 35.4733 46.84 35.46C46.2533 35.4333 45.66 35.4133 45.06 35.4V34.34ZM63.4538 36.92C63.4538 37.9467 63.2271 38.86 62.7738 39.66C62.3338 40.46 61.7204 41.0867 60.9338 41.54C60.1471 41.98 59.2471 42.2 58.2338 42.2C57.2204 42.2 56.3204 41.98 55.5338 41.54C54.7471 41.0867 54.1271 40.46 53.6738 39.66C53.2338 38.86 53.0138 37.9467 53.0138 36.92C53.0138 36.1467 53.1404 35.44 53.3938 34.8C53.6471 34.1467 54.0071 33.5867 54.4738 33.12C54.9538 32.6533 55.5071 32.2933 56.1338 32.04C56.7738 31.7733 57.4738 31.64 58.2338 31.64C58.9938 31.64 59.6871 31.7733 60.3138 32.04C60.9538 32.2933 61.5071 32.6533 61.9738 33.12C62.4538 33.5867 62.8204 34.1467 63.0738 34.8C63.3271 35.44 63.4538 36.1467 63.4538 36.92ZM54.8938 36.92C54.8938 37.7467 55.0271 38.4733 55.2938 39.1C55.5738 39.7267 55.9604 40.2133 56.4538 40.56C56.9604 40.8933 57.5538 41.06 58.2338 41.06C58.9271 41.06 59.5204 40.8933 60.0138 40.56C60.5071 40.2133 60.8871 39.7267 61.1538 39.1C61.4338 38.4733 61.5738 37.7467 61.5738 36.92C61.5738 36.08 61.4338 35.3533 61.1538 34.74C60.8871 34.1133 60.5071 33.6333 60.0138 33.3C59.5204 32.9533 58.9271 32.78 58.2338 32.78C57.5538 32.78 56.9604 32.9533 56.4538 33.3C55.9604 33.6333 55.5738 34.1133 55.2938 34.74C55.0271 35.3533 54.8938 36.08 54.8938 36.92ZM68.2789 31.84V38.74C68.2789 39.2467 68.3322 39.6667 68.4389 40C68.5456 40.32 68.7189 40.56 68.9589 40.72C69.2122 40.8667 69.5522 40.94 69.9789 40.94C70.4189 40.94 70.8322 40.8533 71.2189 40.68C71.6056 40.5067 71.9722 40.2533 72.3189 39.92C72.6656 39.5867 72.9922 39.1733 73.2989 38.68V40.06C72.9522 40.54 72.5989 40.94 72.2389 41.26C71.8789 41.5667 71.4922 41.8 71.0789 41.96C70.6656 42.12 70.1989 42.2 69.6789 42.2C69.0522 42.2 68.4989 42.0867 68.0189 41.86C67.5389 41.6333 67.1656 41.28 66.8989 40.8C66.6322 40.32 66.4989 39.7133 66.4989 38.98V33.7C66.4989 33.4067 66.3789 33.2067 66.1389 33.1C65.8989 32.98 65.5256 32.88 65.0189 32.8L64.7789 32.76V31.84H68.2789ZM74.7389 31.84V40.38C74.7389 40.5667 74.8122 40.7133 74.9589 40.82C75.1056 40.9267 75.2989 41 75.5389 41.04C75.7922 41.08 76.0789 41.1 76.3989 41.1H76.4589V42H73.1389V39.92L72.9589 39.66V33.7C72.9589 33.4067 72.8322 33.2067 72.5789 33.1C72.3389 32.98 71.9589 32.8867 71.4389 32.82L70.9989 32.76V31.84H74.7389ZM77.6194 42V41.1H77.6594C77.9794 41.1 78.2594 41.08 78.4994 41.04C78.7527 41 78.946 40.9267 79.0794 40.82C79.226 40.7133 79.2994 40.5667 79.2994 40.38V33.7C79.2994 33.5 79.246 33.3533 79.1394 33.26C79.0327 33.1533 78.866 33.0667 78.6394 33C78.426 32.9333 78.1527 32.8667 77.8194 32.8L77.6194 32.76V31.84H80.8994V33.96L81.0794 34.18V40.9C81.0794 40.94 81.1594 40.98 81.3194 41.02C81.4794 41.0467 81.6727 41.0667 81.8994 41.08C82.126 41.0933 82.3327 41.1 82.5194 41.1H82.5794V42H77.6194ZM89.2994 42H84.3394V41.1H84.3794C84.566 41.1 84.7727 41.0933 84.9994 41.08C85.226 41.0667 85.4194 41.0467 85.5794 41.02C85.7527 40.98 85.8394 40.94 85.8394 40.9V35.08C85.8394 34.5733 85.786 34.16 85.6794 33.84C85.5727 33.52 85.3927 33.2867 85.1394 33.14C84.8994 32.98 84.566 32.9 84.1394 32.9C83.6994 32.9 83.2794 32.9867 82.8794 33.16C82.4794 33.3333 82.0994 33.5933 81.7394 33.94C81.3927 34.2733 81.0594 34.6933 80.7394 35.2V33.84C81.0994 33.3467 81.4594 32.94 81.8194 32.62C82.1927 32.2867 82.5927 32.04 83.0194 31.88C83.446 31.72 83.9194 31.64 84.4394 31.64C85.0794 31.64 85.6327 31.7533 86.0994 31.98C86.5794 32.2067 86.9527 32.56 87.2194 33.04C87.486 33.5067 87.6194 34.1133 87.6194 34.86V40.38C87.6194 40.5667 87.686 40.7133 87.8194 40.82C87.966 40.9267 88.1594 41 88.3994 41.04C88.6527 41.08 88.9394 41.1 89.2594 41.1H89.2994V42ZM100.49 40.38C100.49 40.6733 100.643 40.8667 100.95 40.96C101.27 41.0533 101.67 41.1 102.15 41.1H102.17V42H98.87V39.76L98.71 39.7V29.16C98.71 28.96 98.6567 28.8067 98.55 28.7C98.4433 28.5933 98.2767 28.5067 98.05 28.44C97.8233 28.3733 97.5367 28.3133 97.19 28.26L96.97 28.22V27.3H100.49V40.38ZM95.47 31.64C96.0033 31.64 96.4767 31.7133 96.89 31.86C97.3033 32.0067 97.6833 32.24 98.03 32.56C98.39 32.8667 98.73 33.2667 99.05 33.76V35.56C98.77 34.92 98.45 34.3933 98.09 33.98C97.7433 33.5667 97.3567 33.2667 96.93 33.08C96.5033 32.88 96.0367 32.78 95.53 32.78C95.05 32.78 94.6233 32.88 94.25 33.08C93.8767 33.28 93.5633 33.5667 93.31 33.94C93.0567 34.3 92.8633 34.74 92.73 35.26C92.61 35.78 92.55 36.36 92.55 37C92.55 37.6133 92.61 38.1733 92.73 38.68C92.8633 39.1733 93.05 39.6 93.29 39.96C93.5433 40.32 93.85 40.5933 94.21 40.78C94.5833 40.9667 95.0033 41.06 95.47 41.06C96.0033 41.06 96.4833 40.9533 96.91 40.74C97.3367 40.5133 97.7233 40.1867 98.07 39.76C98.43 39.3333 98.7567 38.8067 99.05 38.18V39.86C98.7033 40.38 98.35 40.8133 97.99 41.16C97.63 41.5067 97.2367 41.7667 96.81 41.94C96.3833 42.1133 95.8967 42.2 95.35 42.2C94.4167 42.2 93.5967 41.9867 92.89 41.56C92.1967 41.12 91.65 40.5133 91.25 39.74C90.8633 38.9533 90.67 38.04 90.67 37C90.67 35.9333 90.87 35 91.27 34.2C91.67 33.4 92.23 32.7733 92.95 32.32C93.6833 31.8667 94.5233 31.64 95.47 31.64ZM110.263 35.84V36.84C109.596 36.9067 109.003 36.9933 108.483 37.1C107.963 37.2067 107.509 37.3333 107.123 37.48C106.749 37.6267 106.443 37.8 106.203 38C105.963 38.1867 105.783 38.4067 105.663 38.66C105.543 38.9133 105.483 39.1933 105.483 39.5C105.483 39.82 105.556 40.1 105.703 40.34C105.849 40.58 106.056 40.7667 106.323 40.9C106.589 41.0333 106.896 41.1 107.243 41.1C107.709 41.1 108.123 40.9867 108.483 40.76C108.856 40.5333 109.183 40.2133 109.463 39.8C109.756 39.3867 110.009 38.9 110.223 38.34V39.76C110.023 40.2533 109.756 40.6867 109.423 41.06C109.089 41.42 108.703 41.7 108.263 41.9C107.823 42.1 107.323 42.2 106.763 42.2C106.189 42.2 105.663 42.0933 105.183 41.88C104.716 41.6667 104.336 41.36 104.043 40.96C103.763 40.5467 103.623 40.0667 103.623 39.52C103.623 38.9733 103.763 38.5 104.043 38.1C104.323 37.6867 104.743 37.3333 105.303 37.04C105.863 36.7467 106.556 36.5067 107.383 36.32C108.209 36.12 109.169 35.96 110.263 35.84ZM109.923 42V39.86L109.723 39.8V35C109.723 34.44 109.643 34 109.483 33.68C109.336 33.3467 109.116 33.1133 108.823 32.98C108.529 32.8467 108.169 32.78 107.743 32.78C107.089 32.78 106.549 32.9133 106.123 33.18C105.709 33.4467 105.376 33.76 105.123 34.12C105.096 33.96 105.103 33.8133 105.143 33.68C105.183 33.5467 105.243 33.4267 105.323 33.32C105.403 33.2133 105.496 33.12 105.603 33.04C105.723 32.96 105.849 32.8933 105.983 32.84V34.9H104.243V32.84C104.443 32.68 104.709 32.5067 105.043 32.32C105.389 32.1333 105.803 31.9733 106.283 31.84C106.763 31.7067 107.289 31.64 107.863 31.64C108.329 31.64 108.776 31.6933 109.203 31.8C109.629 31.9067 110.016 32.0867 110.363 32.34C110.709 32.58 110.983 32.9067 111.183 33.32C111.383 33.72 111.483 34.22 111.483 34.82V40.38C111.483 40.5667 111.556 40.7133 111.703 40.82C111.849 40.9267 112.043 41 112.283 41.04C112.536 41.08 112.823 41.1 113.143 41.1V42H109.923ZM113.367 32.98V31.94H113.467C113.867 31.94 114.207 31.9133 114.487 31.86C114.78 31.8067 115 31.7067 115.147 31.56C115.294 31.4133 115.367 31.2067 115.367 30.94L116.667 31.84H120.027V32.98H113.367ZM117.007 38.52C117.007 39.1067 117.08 39.5867 117.227 39.96C117.387 40.32 117.607 40.5867 117.887 40.76C118.167 40.92 118.494 41 118.867 41C119.147 41 119.407 40.9733 119.647 40.92C119.887 40.8667 120.094 40.8133 120.267 40.76V41.9C120.147 41.9533 120 42 119.827 42.04C119.667 42.0933 119.494 42.1333 119.307 42.16C119.12 42.1867 118.92 42.2 118.707 42.2C118.12 42.2 117.56 42.0933 117.027 41.88C116.494 41.6667 116.06 41.2933 115.727 40.76C115.394 40.2267 115.227 39.4867 115.227 38.54V32.16L115.367 32.02V29.04H117.007V38.52ZM123.928 29.62C123.581 29.62 123.288 29.5133 123.048 29.3C122.821 29.0733 122.708 28.7733 122.708 28.4C122.708 28.0267 122.821 27.7333 123.048 27.52C123.288 27.3067 123.581 27.2 123.928 27.2C124.275 27.2 124.561 27.3067 124.788 27.52C125.028 27.7333 125.148 28.0267 125.148 28.4C125.148 28.7733 125.028 29.0733 124.788 29.3C124.561 29.5133 124.275 29.62 123.928 29.62ZM124.908 31.84V40.38C124.908 40.6733 125.061 40.8667 125.368 40.96C125.688 41.0533 126.088 41.1 126.568 41.1H126.588V42H121.448V41.1H121.468C121.948 41.1 122.341 41.0533 122.648 40.96C122.968 40.8667 123.128 40.6733 123.128 40.38V33.7C123.128 33.4067 123.008 33.2067 122.768 33.1C122.528 32.9933 122.155 32.8933 121.648 32.8L121.428 32.76V31.84H124.908ZM138.415 36.92C138.415 37.9467 138.188 38.86 137.735 39.66C137.295 40.46 136.681 41.0867 135.895 41.54C135.108 41.98 134.208 42.2 133.195 42.2C132.181 42.2 131.281 41.98 130.495 41.54C129.708 41.0867 129.088 40.46 128.635 39.66C128.195 38.86 127.975 37.9467 127.975 36.92C127.975 36.1467 128.101 35.44 128.355 34.8C128.608 34.1467 128.968 33.5867 129.435 33.12C129.915 32.6533 130.468 32.2933 131.095 32.04C131.735 31.7733 132.435 31.64 133.195 31.64C133.955 31.64 134.648 31.7733 135.275 32.04C135.915 32.2933 136.468 32.6533 136.935 33.12C137.415 33.5867 137.781 34.1467 138.035 34.8C138.288 35.44 138.415 36.1467 138.415 36.92ZM129.855 36.92C129.855 37.7467 129.988 38.4733 130.255 39.1C130.535 39.7267 130.921 40.2133 131.415 40.56C131.921 40.8933 132.515 41.06 133.195 41.06C133.888 41.06 134.481 40.8933 134.975 40.56C135.468 40.2133 135.848 39.7267 136.115 39.1C136.395 38.4733 136.535 37.7467 136.535 36.92C136.535 36.08 136.395 35.3533 136.115 34.74C135.848 34.1133 135.468 33.6333 134.975 33.3C134.481 32.9533 133.888 32.78 133.195 32.78C132.515 32.78 131.921 32.9533 131.415 33.3C130.921 33.6333 130.535 34.1133 130.255 34.74C129.988 35.3533 129.855 36.08 129.855 36.92ZM140.1 42V41.1H140.14C140.46 41.1 140.74 41.08 140.98 41.04C141.233 41 141.427 40.9267 141.56 40.82C141.707 40.7133 141.78 40.5667 141.78 40.38V33.7C141.78 33.5 141.727 33.3533 141.62 33.26C141.513 33.1533 141.347 33.0667 141.12 33C140.907 32.9333 140.633 32.8667 140.3 32.8L140.1 32.76V31.84H143.38V33.96L143.56 34.18V40.9C143.56 40.94 143.64 40.98 143.8 41.02C143.96 41.0467 144.153 41.0667 144.38 41.08C144.607 41.0933 144.813 41.1 145 41.1H145.06V42H140.1ZM151.78 42H146.82V41.1H146.86C147.047 41.1 147.253 41.0933 147.48 41.08C147.707 41.0667 147.9 41.0467 148.06 41.02C148.233 40.98 148.32 40.94 148.32 40.9V35.08C148.32 34.5733 148.267 34.16 148.16 33.84C148.053 33.52 147.873 33.2867 147.62 33.14C147.38 32.98 147.047 32.9 146.62 32.9C146.18 32.9 145.76 32.9867 145.36 33.16C144.96 33.3333 144.58 33.5933 144.22 33.94C143.873 34.2733 143.54 34.6933 143.22 35.2V33.84C143.58 33.3467 143.94 32.94 144.3 32.62C144.673 32.2867 145.073 32.04 145.5 31.88C145.927 31.72 146.4 31.64 146.92 31.64C147.56 31.64 148.113 31.7533 148.58 31.98C149.06 32.2067 149.433 32.56 149.7 33.04C149.967 33.5067 150.1 34.1133 150.1 34.86V40.38C150.1 40.5667 150.167 40.7133 150.3 40.82C150.447 40.9267 150.64 41 150.88 41.04C151.133 41.08 151.42 41.1 151.74 41.1H151.78V42Z" fill="#333333"/>
</svg>
