<svg width="31" height="49" viewBox="0 0 31 49" fill="none" xmlns="http://www.w3.org/2000/svg">
<path fill-rule="evenodd" clip-rule="evenodd" d="M14.6026 1.42821L0.752028 23.4704C0.587769 23.6053 0.475475 23.7886 0.426393 23.9887L0 24.6673L15.5 33.6372L31 24.6673L16.3974 1.42821C16.3547 1.32335 16.2941 1.22766 16.2194 1.14492L15.5 0L14.7806 1.14492C14.7059 1.22766 14.6453 1.32335 14.6026 1.42821ZM14.5312 5.18331L4.04509 21.8714L14.5312 16.8796V5.18331ZM14.5312 19.0254L3.3317 24.3568L14.5312 30.838V19.0254ZM16.4688 30.838V19.0477L27.4815 24.4649L16.4688 30.838ZM16.4688 16.8885V5.18331L27.1143 22.1251L16.4688 16.8885ZM15.387 36.2627L0 27.3582L15.5 48.4375L31 27.3582L15.613 36.2627C15.5759 36.2584 15.5382 36.2562 15.5 36.2562C15.4618 36.2562 15.4241 36.2584 15.387 36.2627ZM14.5312 38.006L7.05167 33.6776L14.5312 43.8495V38.006ZM16.4688 43.8495L23.9483 33.6776L16.4688 38.006V43.8495Z" fill="white"/>
</svg>
