<?xml version="1.0" encoding="utf-8"?>
<!-- Generator: Adobe Illustrator 26.0.3, SVG Export Plug-In . SVG Version: 6.00 Build 0)  -->
<svg version="1.0" id="katman_1" xmlns="http://www.w3.org/2000/svg" xmlns:xlink="http://www.w3.org/1999/xlink" x="0px" y="0px"
	 viewBox="0 0 600 450" style="enable-background:new 0 0 600 450;" xml:space="preserve">
<style type="text/css">
	.st0{clip-path:url(#SVGID_00000145022003172510240130000005102202484754643369_);}
	.st1{fill:#3863AC;}
	.st2{fill-rule:evenodd;clip-rule:evenodd;fill:#FFFFFF;}
</style>
<g>
	<defs>
		<rect id="SVGID_1_" x="59.2" y="156.1" width="480.9" height="138.5"/>
	</defs>
	<clipPath id="SVGID_00000105402082735680543220000016672088280606528645_">
		<use xlink:href="#SVGID_1_"  style="overflow:visible;"/>
	</clipPath>
	<g style="clip-path:url(#SVGID_00000105402082735680543220000016672088280606528645_);">
		<path class="st1" d="M128.5,294.6c38.2,0,69.3-31,69.3-69.3c0-38.2-31-69.3-69.3-69.3s-69.3,31-69.3,69.3
			C59.2,263.6,90.2,294.6,128.5,294.6z"/>
		<path class="st1" d="M434,207.9c12.7,0,27.1,4.9,28,20.5h-17.7c-0.4-4.5-4.6-6.6-10.1-6.6c-5.2,0-7.5,2-7.5,4.3
			c0,2,1.5,3.8,6.2,4.6l11.2,1.8c11.2,2.1,18.6,7.4,18.6,17.9c0,13.7-12.4,20-28,20c-15.7,0-28.3-6.5-29.6-22.2l17.7,0.1
			c0.9,5.1,5.2,7.4,11.5,7.4c5.3,0,8.5-1.6,8.5-4.1c0-2-1.8-3.5-5.8-4.1l-12.1-2.1c-10.4-1.7-17.5-7.4-17.5-17.8
			C407.4,215.3,418.1,207.9,434,207.9z M359.2,208.2c6.5,0,11.9,1.7,16.4,4.5v-3.2h19.9v59.1h-19.9v-3.3c-4.4,2.8-9.8,4.5-16.4,4.5
			c-16.1,0-29.6-13.3-29.6-30.8C329.5,221.3,343,208.2,359.2,208.2z M242.4,185.6l29.9,44.3l29.8-44.3h15.6v83h-20.9V227l-18.6,28.4
			v0.1h-11.6v-0.1l-18.8-28.7l0.1,41.9H227v-83H242.4z M493.5,182.2v49.6l20.9-22.2h23.8l-22.7,24.1l24.7,35h-23.9l-14.3-20.5
			l-8.4,8.9v11.6h-20v-86.5H493.5z M363.1,224.3c-8.1,0-14,6.6-14,14.7s5.9,14.6,14,14.6c4.4,0,8.7-1.2,12.4-5.5v-18.3
			C371.8,225.6,367.5,224.3,363.1,224.3z"/>
		<path class="st2" d="M170.3,208.3v23h-70.1l-3,0c3.2,14,15.9,24.4,31,24.4c12.5,0,23.3-7.1,28.5-17.5h13.6v19.3
			c0,4.6-3.8,8.3-8.4,8.3H94.6c-4.6,0-8.4-3.7-8.4-8.3v-49.2H170.3z M148.6,238.2c-4.5,6.4-12,10.6-20.5,10.6
			c-8.5,0-16-4.2-20.5-10.6H148.6z M110.2,213.9c-6.6,0-12,4.8-13,11h7.2c0.8-2.4,3.1-4.1,5.8-4.1s5,1.7,5.8,4.1h7.2
			C122.3,218.7,116.8,213.9,110.2,213.9z M146.2,213.9c-6.6,0-12,4.8-13,11h7.2c0.8-2.4,3.1-4.1,5.8-4.1c2.7,0,5,1.7,5.8,4.1h7.2
			C158.3,218.7,152.8,213.9,146.2,213.9z M161.9,183c4.6,0,8.4,3.7,8.4,8.3v10.1H86.2v-10.1c0-4.6,3.8-8.3,8.4-8.3H161.9z"/>
	</g>
</g>
</svg>
