<svg xmlns="http://www.w3.org/2000/svg" width="24" height="24" viewBox="0 0 24 24" fill="currentColor" aria-hidden="true">
  <path d="M9.352 4C4.456 7.456 1 13.12 1 19.36c0 3.912 2.36 6.2 5.104 6.2 2.6 0 4.528-2.072 4.528-4.528 0-2.456-1.712-4.248-3.952-4.248-.448 0-1.064.072-1.208.144.376-2.528 2.752-5.504 5.128-7l-1.248-2.928zm12.92 0c-4.824 3.456-8.28 9.12-8.28 15.36 0 3.912 2.36 6.2 5.104 6.2 2.528 0 4.528-2.072 4.528-4.528 0-2.456-1.784-4.248-4.024-4.248-.448 0-.992.072-1.136.144.376-2.528 2.68-5.504 5.056-7L22.272 4z"/>
</svg>
